<svg preserveAspectRatio="none" width="100%" height="100%" overflow="visible" style="display: block;" viewBox="0 0 42.5995 37.0998" fill="none" xmlns="http://www.w3.org/2000/svg">
<g id="Group">
<path id="Vector" d="M28.1731 10.4065C27.9868 10.3745 27.8021 10.3313 27.6142 10.3122C27.1419 10.2626 26.6664 10.2434 26.1974 10.1731C25.864 10.1235 25.6091 10.213 25.4179 10.4513C25.3492 10.1251 25.2822 9.80535 25.2152 9.48719C25.1858 9.48879 25.1548 9.49039 25.1254 9.49199C24.8263 10.4001 24.6515 11.4201 23.3098 11.4057C23.3163 11.4329 23.3212 11.4585 23.3278 11.4857C23.4928 11.5432 23.6562 11.604 23.8229 11.6551C24.2347 11.783 24.4815 12.0468 24.5403 12.4705C24.555 12.576 24.5828 12.6784 24.5975 12.7839C24.6547 13.2299 24.8345 13.6073 25.1679 13.9302C25.967 14.704 26.4736 15.6601 26.9082 16.6977C26.4686 16.9615 26.034 17.2205 25.5993 17.4811C25.6189 17.5259 25.6401 17.5706 25.6597 17.6154C26.1304 17.4523 26.601 17.2909 27.0684 17.1294C27.2955 17.5563 27.258 17.6394 26.8184 17.7625C26.5177 17.8472 26.2154 17.9304 25.9196 18.0327C25.8068 18.0711 25.7137 18.1622 25.6107 18.2277C25.6205 18.2677 25.6303 18.3093 25.6418 18.3493C26.1336 18.3077 26.6255 18.2661 27.1158 18.2245C27.2612 18.709 27.1779 18.8145 26.6909 18.8513C26.2529 18.8848 25.8183 18.952 25.3836 19.0032C25.3836 19.0399 25.3803 19.0767 25.3787 19.1119C25.846 19.1806 26.3134 19.2478 26.7775 19.3149C26.7546 19.793 26.57 19.9576 26.1206 19.948C25.7055 19.94 25.2904 19.9464 24.8655 19.9784C25.2103 20.2934 25.7055 20.223 26.0944 20.4213C25.7055 20.9825 24.7479 21.3566 24.1203 21.1072C23.4422 20.837 22.7869 20.4996 22.1528 20.1399C21.7606 19.9177 21.4844 19.5547 21.4697 19.0815C21.4665 18.9632 21.5531 18.7889 21.6528 18.7282C21.9485 18.5539 22.0989 18.3221 22.1397 17.9879C22.1969 17.5067 22.4192 17.3084 22.9143 17.2509C23.0761 17.2317 23.2395 17.2189 23.4013 17.2285C23.8295 17.2557 24.0599 16.9791 24.2494 16.6817C24.4325 16.3907 24.4635 16.0678 24.2266 15.6921C24.0435 15.9751 23.8834 16.2229 23.7036 16.4995C23.2461 16.1189 22.7575 16.1317 22.2362 16.2261C21.4844 16.3636 20.7278 16.3492 19.9761 16.1845C19.543 16.0886 19.1345 16.1589 18.7701 16.533C18.6116 16.2453 18.4727 15.9926 18.2913 15.6617C18.2259 15.8344 18.1687 15.9399 18.1507 16.0502C18.0609 16.597 18.574 17.3436 19.2293 17.2317C19.3224 17.2157 19.4237 17.2317 19.5218 17.2429C19.9777 17.2957 20.218 17.4955 20.2702 17.9368C20.3144 18.3093 20.4876 18.5571 20.8079 18.7537C20.9092 18.8161 20.9909 19.0143 20.9746 19.1391C20.9288 19.5148 20.6951 19.801 20.3895 20.0232C19.6166 20.586 18.7096 20.8466 17.7912 21.0544C17.3647 21.1503 16.8189 20.8609 16.4136 20.4053C16.8271 20.2742 17.2274 20.1463 17.6262 20.0184C17.6229 19.9848 17.6213 19.9528 17.618 19.9193C17.502 19.9049 17.3843 19.8761 17.2699 19.8809C17.0101 19.8921 16.7502 19.9193 16.4921 19.9384C15.9838 19.9768 15.8433 19.8649 15.7273 19.2925C16.1799 19.235 16.631 19.1774 17.082 19.1199C17.082 19.0847 17.0836 19.0511 17.0853 19.0159C16.7306 18.9584 16.3777 18.8992 16.023 18.8433C15.9593 18.8337 15.8923 18.8353 15.8286 18.8257C15.3661 18.7521 15.3563 18.7394 15.4102 18.199C15.8907 18.2453 16.3744 18.2933 16.8581 18.3413C16.8744 18.3013 16.8892 18.2629 16.9055 18.2229C16.7633 18.1366 16.6293 18.0247 16.4757 17.9671C16.1832 17.8584 15.8809 17.7737 15.5785 17.6938C15.3351 17.6298 15.3187 17.4875 15.3792 17.2845C15.4544 17.0287 15.6145 17.1278 15.7599 17.1869C16.0002 17.2829 16.2322 17.3964 16.4741 17.4891C16.5852 17.5323 16.7094 17.5467 16.8271 17.5738C16.8434 17.5419 16.8597 17.5115 16.8761 17.4795C16.4512 17.2077 16.0263 16.9359 15.6292 16.6833C15.8253 16.2516 16.023 15.8631 16.1783 15.4571C16.4022 14.8751 16.7437 14.3843 17.2421 14.0006C17.6017 13.7256 17.8549 13.385 17.8762 12.9358C17.9138 12.1779 18.2831 11.7079 19.0397 11.532C19.0904 11.5208 19.1361 11.4889 19.1819 11.4649C19.1868 11.4617 19.1868 11.4457 19.1933 11.4025C17.953 11.3514 17.7798 10.3585 17.3794 9.48239C17.3157 9.80375 17.2503 10.1251 17.1817 10.4656C16.899 10.0659 16.5002 10.1347 16.0688 10.2242C15.7338 10.2946 15.3792 10.2722 15.0327 10.301C14.8334 10.3186 14.6356 10.3553 14.4363 10.3825C14.4265 10.4177 14.4167 10.4545 14.4052 10.4896C14.5474 10.5584 14.6814 10.6591 14.8301 10.6879C15.3432 10.7902 15.7436 11.0444 16.0704 11.4425C16.2845 11.7031 16.5656 11.8694 16.9218 11.9253C17.0411 11.9445 17.198 12.1012 17.2307 12.2227C17.3712 12.7391 17.1719 13.1708 16.8205 13.5609C16.278 14.1652 15.7452 14.7808 15.219 15.3995C15.0687 15.5754 14.9576 15.7848 14.7958 16.0262C13.7891 15.0494 13.7074 13.8838 13.9329 12.5617C13.7826 12.6688 13.7042 12.7007 13.66 12.7583C13.4051 13.0861 13.1012 13.393 12.9198 13.7575C12.6616 14.2756 12.2563 14.4051 11.7955 14.3843C11.9311 14.0341 12.0912 13.6824 12.2024 13.3179C12.5929 12.0404 12.9541 10.7534 13.3512 9.4776C13.6698 8.45437 14.2974 7.65178 15.2534 7.1082C15.3939 7.02826 15.5312 6.94352 15.7011 6.8428C14.9788 6.75167 14.2859 6.66374 13.593 6.5758C13.593 6.53743 13.593 6.49746 13.5914 6.45909C14.4134 6.51665 15.1471 6.23526 15.8858 5.95388C16.2371 5.81958 16.6015 5.70606 16.9676 5.61973C17.5853 5.47584 18.2145 5.43747 18.8338 5.61014C19.8764 5.90112 20.4418 6.64615 20.736 7.61182C20.9321 8.25613 21.0792 8.91482 21.2965 9.57352C21.4109 9.08749 21.5253 8.60146 21.6397 8.11383C21.6413 8.10424 21.6462 8.09305 21.6479 8.08346C22.1348 5.67409 23.9978 5.09213 25.998 5.70127C26.4311 5.83237 26.8429 6.03541 27.2776 6.16172C27.8119 6.3168 28.3594 6.42552 28.9346 6.56301C28.2728 6.65734 27.6142 6.75167 26.9426 6.8476C27.1991 7.00907 27.4655 7.16256 27.7139 7.33842C28.611 7.97634 29.0588 8.88285 29.3464 9.90287C29.7141 11.2091 30.1177 12.5057 30.523 13.8023C30.5868 14.0054 30.7355 14.1828 30.8384 14.3603C30.4103 14.469 30.0344 14.3187 29.7697 13.9206C29.5278 13.5577 29.2696 13.2044 29.0229 12.843C28.9526 12.7391 28.897 12.624 28.8349 12.5137C28.781 12.5489 28.7287 12.5856 28.6748 12.6208C28.6895 12.8255 28.7026 13.0285 28.7189 13.2331C28.7941 14.1812 28.5539 15.0414 27.9541 15.7944C27.7498 16.0502 27.6583 16.047 27.5096 15.7704C27.0913 14.9902 26.5177 14.3299 25.8967 13.7016C25.498 13.2987 25.2185 12.851 25.2953 12.2531C25.3182 12.0692 25.377 11.9477 25.5748 11.9253C26.0127 11.8758 26.3428 11.6424 26.6125 11.3258C26.8805 11.0092 27.2122 10.8222 27.6207 10.7358C27.8136 10.6943 27.9933 10.5935 28.178 10.52C28.1747 10.4784 28.1731 10.4353 28.1698 10.3937L28.1731 10.4065Z" fill="var(--fill-0, #9D833E)"/>
<path id="Vector_2" d="M23.872 25.6541C24.7855 26.9235 24.2053 28.0683 23.5794 29.2242C25.3541 27.5023 26.8527 25.6301 27.2498 23.104C28.0571 24.8627 28.0946 27.9036 25.6303 29.731C25.9882 29.5487 26.369 29.3969 26.7007 29.1762C28.343 28.0859 29.2304 26.5622 29.3464 24.6229C29.4428 23.0161 29.1144 21.4557 28.745 19.9033C28.7352 19.8633 28.7238 19.8217 28.7042 19.7466C28.7483 19.7754 28.7745 19.7834 28.7843 19.7994C29.8073 21.4605 30.8237 23.128 31.5444 24.9426C32.0787 26.2888 32.2781 27.6734 31.863 29.0883C31.4676 30.4377 30.5541 31.4097 29.3333 32.0748C28.1992 32.692 27.0128 33.2164 25.846 33.7759C24.8868 34.2364 23.9667 34.7448 23.3343 35.6385C23.5696 34.1325 24.1481 32.8454 25.6352 32.1452C26.5128 31.7327 27.3969 31.3346 28.2924 30.9589C29.7582 30.3433 30.3024 29.1586 30.3841 27.7133C30.4217 27.045 30.34 26.372 30.2763 25.7165C30.1733 26.2409 30.1226 26.7828 29.9576 27.2881C29.5049 28.6774 28.5114 29.5695 27.1256 30.0635C26.2317 30.3833 25.3198 30.6631 24.4439 31.0244C23.9014 31.2483 23.3703 31.5424 22.9045 31.8942C21.9404 32.6248 21.5188 33.656 21.4044 34.8231C21.3782 35.0965 21.3504 35.3699 21.2981 35.6433C21.2262 35.1637 21.1723 34.6808 21.0808 34.206C20.8585 33.0453 20.2457 32.102 19.1819 31.5648C18.1589 31.0484 17.0624 30.6615 15.9822 30.2602C14.9657 29.8829 13.995 29.4576 13.325 28.5719C12.6567 27.6894 12.302 26.7093 12.3788 25.5981C12.1206 27.1394 11.9687 28.6822 13.0162 30.0284C13.2972 30.3897 13.745 30.6615 14.1683 30.8773C14.9151 31.2578 15.6929 31.5872 16.4741 31.8974C18.0592 32.5257 18.8992 33.7136 19.2309 35.3028C19.2424 35.3539 19.2489 35.4067 19.2522 35.4594C19.2554 35.5122 19.2522 35.565 19.2522 35.6625C18.306 34.3387 16.8467 33.8351 15.4854 33.1764C14.6226 32.7591 13.7303 32.3754 12.9345 31.8542C10.8264 30.4712 10.1024 28.5463 10.6826 26.1289C10.9702 24.9315 11.5029 23.8299 12.0961 22.7571C12.606 21.8346 13.1518 20.9297 13.6813 20.0184C13.7172 19.956 13.763 19.8985 13.8561 19.8601C13.7548 20.3078 13.6388 20.7538 13.5522 21.2047C13.3103 22.4677 13.0864 23.7372 13.2613 25.0274C13.562 27.2273 14.7696 28.7701 16.8434 29.6655C16.9088 29.6942 16.9807 29.7102 17.1294 29.7582C14.531 28.0027 14.4542 25.1889 15.3367 23.0129C15.4396 24.2919 15.8988 25.3823 16.5721 26.3943C17.2421 27.4 17.9546 28.3704 18.8649 29.1666C18.659 28.5799 18.4024 28.0027 18.2619 27.4C18.1164 26.778 18.2357 26.1673 18.6835 25.6477C18.6802 26.3544 19.0038 26.9363 19.3715 27.5007C20.1395 28.679 20.9484 29.8349 21.2932 31.2435C21.625 29.7342 22.527 28.5255 23.3261 27.2641C23.635 26.7764 23.8703 26.2552 23.872 25.6541Z" fill="var(--fill-0, #9D833E)"/>
<path id="Vector_3" d="M10.8885 16.3172C10.8117 17.9831 10.3982 19.4476 9.45857 20.7554C8.62024 21.9225 7.86852 23.1456 7.57274 24.5637C7.35703 25.5997 7.21649 26.6533 7.07759 27.7021C6.90763 28.9876 6.47621 30.1851 5.81764 31.3362C5.81764 31.2403 5.81437 31.1443 5.81764 31.05C5.85686 30.0843 5.68527 29.1522 5.35844 28.2409C4.85348 26.8324 4.27335 25.4431 3.87625 24.0058C3.27161 21.8186 3.15558 19.5899 3.75369 17.3692C3.87952 16.904 4.08215 16.4579 4.24557 16.0166C2.99543 16.6465 1.4348 19.705 1.15045 22.0265C1.11287 21.6939 1.06384 21.3614 1.0377 21.0272C0.872646 18.8705 0.87428 16.7217 1.40702 14.6033C1.66195 13.5865 2.03617 12.6208 2.69474 11.7798C3.06407 11.3082 3.52 10.9533 4.09196 10.7454C3.81905 11.2538 3.5151 11.7367 3.29612 12.2531C3.07551 12.7759 2.93824 13.3323 2.81731 13.9014C4.02823 11.7655 5.76371 10.1619 7.91755 8.96759C7.90284 8.93561 7.8865 8.90363 7.87179 8.87166C7.09229 9.02034 6.30789 9.14665 5.53656 9.32571C4.43187 9.58152 3.34188 9.89328 2.23554 10.1459C1.49363 10.3154 0.743547 10.277 0 10.0276C0.148709 9.98441 0.299053 9.94124 0.447762 9.89648C1.77307 9.49838 2.87777 8.74535 3.88605 7.84204C4.22269 7.54147 4.54626 7.22651 4.86002 6.90355C6.04969 5.68048 7.49266 5.32236 9.13664 5.72845C10.3198 6.02102 11.4882 6.36316 12.624 6.67173C11.7971 7.00428 10.8934 7.04744 9.95699 6.8444C8.38982 6.50386 7.02366 6.94033 5.82091 7.93957C5.7964 7.96035 5.77189 7.98113 5.75064 8.00672C5.7392 8.0211 5.73593 8.04029 5.71632 8.09305C6.55629 7.77329 7.41096 7.64539 8.28197 7.70934C8.90785 7.75571 9.52557 7.88041 10.1498 7.95076C10.8705 8.0323 11.5944 8.09145 12.3167 8.1602C12.4328 8.17139 12.5471 8.17619 12.673 8.24014C12.4785 8.30889 12.2824 8.37604 12.0879 8.44798C10.1694 9.15145 8.27707 9.90927 6.54321 10.9964C4.1753 12.4817 2.8026 14.6529 2.06886 17.2573C2.06396 17.2765 2.07376 17.2989 2.07539 17.3148C2.42674 16.7585 2.75357 16.1845 3.13597 15.6457C4.2423 14.0837 5.59049 12.7647 7.4322 12.0708C8.39473 11.7079 9.42915 11.5256 10.4309 11.265C11.0355 11.1084 11.6435 10.9613 12.271 10.8382C10.9555 12.2147 9.54845 13.5049 8.50258 15.0989C7.46162 16.6849 6.71643 18.4084 5.9925 20.1479C5.95001 18.1766 6.07257 16.2325 6.92888 14.3955C6.15265 15.2124 5.63135 16.1637 5.25058 17.2013C4.66555 18.7969 4.65902 20.4501 4.74889 22.1064C4.83224 23.6492 5.15744 25.1505 5.6673 26.6134C5.69508 26.6933 5.7294 26.7717 5.76371 26.8484C5.77025 26.8644 5.79313 26.8724 5.87157 26.9347C5.82418 26.3304 5.78169 25.7804 5.73757 25.2304C5.6101 23.6188 5.72776 22.052 6.54648 20.5971C7.06124 19.6842 7.79172 18.9712 8.64475 18.3684C9.46347 17.7913 10.4048 17.35 10.8901 16.3172H10.8885Z" fill="var(--fill-0, #9D833E)"/>
<path id="Vector_4" d="M31.7454 16.4275C32.1539 17.2077 32.8452 17.697 33.5626 18.1606C35.2049 19.2238 36.339 20.6355 36.7427 22.5573C36.9616 23.6013 36.8946 24.6485 36.8048 25.6973C36.7688 26.1066 36.7378 26.5158 36.7672 26.9443C36.808 26.866 36.8587 26.7924 36.8865 26.7109C37.7755 24.0601 38.1284 21.3534 37.6709 18.5859C37.4061 16.9903 36.7165 15.5594 35.5988 14.3427C36.0498 15.2908 36.3243 16.29 36.4403 17.3212C36.5433 18.2469 36.576 19.1806 36.5694 20.1351C35.2245 16.5426 33.2619 13.3722 30.2223 10.9021C30.2485 10.8717 30.2746 10.8414 30.3008 10.811C30.7093 10.9165 31.1146 11.03 31.5248 11.1243C32.2732 11.2954 33.0233 11.4569 33.7734 11.6168C35.839 12.0596 37.4437 13.2092 38.7298 14.7984C39.3982 15.6249 39.9702 16.5282 40.498 17.2749C40.1401 15.8456 39.4325 14.4003 38.4161 13.0972C37.3146 11.6855 35.8537 10.7262 34.2293 9.9972C33.02 9.45362 31.783 8.97078 30.5573 8.46237C30.3808 8.38882 30.2011 8.32168 30.0279 8.18898C30.4119 8.16659 30.7976 8.1634 31.1767 8.11543C31.9938 8.01151 32.806 7.87402 33.6214 7.77009C34.7441 7.6262 35.8488 7.69655 36.9208 8.12982C36.692 7.79248 35.8243 7.2329 35.2033 7.00108C34.2865 6.66054 33.3583 6.69251 32.4203 6.89716C31.5444 7.08741 30.7044 6.95631 29.9053 6.63975C30.6407 6.46709 31.3908 6.29921 32.1343 6.11535C32.7308 5.96826 33.3158 5.75882 33.9188 5.65171C35.3389 5.3991 36.5727 5.7892 37.6186 6.76606C38.2935 7.39598 38.9586 8.03869 39.6711 8.62385C40.4767 9.28574 41.4213 9.71422 42.4345 9.99081C42.4835 10.0036 42.5325 10.0212 42.5995 10.0404C42.2253 10.2114 41.3674 10.325 40.784 10.2082C39.7577 10.002 38.7413 9.74459 37.7183 9.51917C36.7165 9.29853 35.7131 9.09229 34.6836 8.92442C36.7835 10.2034 38.568 11.7671 39.7185 13.9846C39.7691 13.3131 39.274 12.066 38.4455 10.7454C39.0158 10.9677 39.4521 11.2922 39.7969 11.7367C40.6026 12.7759 40.9997 13.9798 41.2611 15.2364C41.6664 17.1805 41.6354 19.1391 41.4769 21.1024C41.4507 21.4189 41.4148 21.7355 41.3641 22.0568C41.0749 19.6794 40.06 17.6586 38.3 15.9479C38.2919 16.0166 38.2788 16.0486 38.2886 16.0678C39.0942 17.7033 39.2331 19.4396 39.1416 21.2223C39.0338 23.3311 38.3654 25.2912 37.5777 27.2273C37.1561 28.2617 36.7737 29.3105 36.7459 30.4457C36.7394 30.7414 36.7459 31.0388 36.7459 31.4225C36.6283 31.2307 36.5351 31.1028 36.4665 30.9621C35.87 29.7214 35.5072 28.42 35.4026 27.0514C35.2425 24.9634 34.6738 23.0113 33.4629 21.2574C32.8435 20.3605 32.2373 19.4476 31.9987 18.3684C31.8581 17.7385 31.7732 17.0974 31.662 16.4627C31.6898 16.4515 31.716 16.4403 31.7437 16.4307L31.7454 16.4275Z" fill="var(--fill-0, #9D833E)"/>
<path id="Vector_5" d="M23.4226 24.0585C23.6334 24.527 23.6252 24.9986 23.4634 25.5518C23.2739 24.9874 22.916 24.6836 22.4192 24.4998V26.2968C22.192 25.734 21.9714 25.1873 21.7508 24.6389C21.7181 24.6389 21.6838 24.6373 21.6511 24.6357C21.522 25.0466 21.3913 25.4591 21.2426 25.9323C21.1086 25.4607 20.9942 25.0578 20.8798 24.6533C20.8471 24.6485 20.8144 24.6421 20.7817 24.6373C20.5546 25.1969 20.3258 25.758 20.0921 26.3352V24.5174C19.5855 24.6645 19.262 24.973 19.1018 25.4559C19.0773 25.4495 19.0512 25.4415 19.0266 25.4351C19.0136 25.2064 18.9858 24.9794 18.9907 24.7508C18.9956 24.5318 19.0332 24.3127 19.061 24.0489C18.1279 24.4342 17.6245 25.1217 17.3663 26.0266C17.3091 25.483 17.3696 24.9618 17.5297 24.4454C17.5788 24.2855 17.5297 24.0969 17.5265 23.921C17.3647 24.0026 17.1849 24.0633 17.0444 24.1704C16.9039 24.2776 16.7993 24.4326 16.68 24.5669C16.6702 23.1744 17.6523 21.8778 19.0773 21.5404C20.7098 21.1551 22.3522 21.1999 23.952 21.7243C25.1989 22.1336 25.949 23.2607 25.8804 24.479C25.6973 24.3223 25.5078 24.1401 25.2953 23.9898C25.2185 23.9354 25.0861 23.9578 24.9799 23.945C24.9685 24.0537 24.9325 24.1672 24.9505 24.2712C25.0371 24.7908 25.1368 25.3088 25.23 25.8284C25.2398 25.8843 25.23 25.9451 25.23 25.9339C24.975 25.531 24.7364 25.0546 24.4014 24.6581C24.1694 24.3831 23.8033 24.2152 23.4977 23.9994C23.4732 24.0185 23.4487 24.0377 23.4242 24.0569L23.4226 24.0585Z" fill="var(--fill-0, #9D833E)"/>
<path id="Vector_6" d="M5.86342 4.38387C6.88967 4.23038 7.61361 4.29114 8.15289 4.58052C7.35868 4.52136 6.68377 4.78037 5.99905 4.9962C5.42546 5.17687 4.84369 5.27279 4.22761 5.04257C4.91887 4.98021 5.17543 4.43023 5.52678 3.98897C5.88139 3.54291 6.34059 3.26792 6.91092 3.16879C7.01387 3.1512 7.11356 3.11603 7.23939 3.08086C6.70174 1.99848 6.69194 0.970463 7.49105 0.00639529C7.192 0.922499 7.23612 1.80503 7.75905 2.6332C8.26891 3.44059 9.05331 3.90104 9.92759 4.24637C9.26412 3.56209 9.01083 2.72273 8.93075 1.81142C8.94709 1.8466 8.9667 1.88177 8.98141 1.91854C8.99775 1.95691 9.01083 1.99848 9.02553 2.03845C9.97172 4.80275 12.8119 5.05056 14.5131 4.12327C15.1994 3.74915 15.876 3.37983 16.6931 3.31428C16.5345 3.2871 16.3777 3.25193 16.2175 3.23594C16.0557 3.21995 15.8923 3.22475 15.7305 3.22315C15.5622 3.22155 15.3939 3.22315 15.219 3.22315C16.1325 2.7611 18.2112 3.0233 19.4695 4.51657C19.1149 4.35509 18.8028 4.19521 18.4776 4.06731C17.0983 3.52212 15.7861 3.5477 14.5539 4.475C13.8954 4.97062 13.1551 5.31436 12.3102 5.40869C11.3362 5.51901 10.4375 5.29837 9.59259 4.84272C9.05168 4.55174 8.53528 4.21919 7.9911 3.93301C7.28841 3.56529 6.67233 3.63244 6.12488 4.10568C6.04644 4.17283 5.98434 4.25597 5.86832 4.38227L5.86342 4.38387Z" fill="var(--fill-0, #9D833E)"/>
<path id="Vector_7" d="M35.0709 0C35.8602 0.965666 35.9174 1.99528 35.3291 3.10644C36.2949 3.18478 36.9257 3.69799 37.4045 4.44942C37.6251 4.79635 37.9634 5.00739 38.4063 5.03617C37.9569 5.2616 37.4911 5.20564 37.0368 5.11611C36.6789 5.04576 36.3358 4.90187 35.9795 4.81394C35.4925 4.69243 34.999 4.59491 34.5365 4.49259C35.1918 4.2144 35.9289 4.24797 36.6806 4.38547C36.473 3.941 35.7295 3.58607 35.2 3.72197C34.8503 3.8131 34.5169 3.97778 34.195 4.14245C33.5446 4.475 32.9334 4.89548 32.2601 5.16567C31.1179 5.62293 29.969 5.5206 28.8758 4.95623C28.5506 4.78836 28.2303 4.6045 27.9361 4.39026C26.7612 3.53491 25.511 3.53811 24.2135 4.05452C23.9095 4.17603 23.6154 4.32471 23.2673 4.48459C24.287 3.156 26.4115 2.68916 27.6142 3.27591H25.9212L25.9049 3.36544C26.8331 3.36544 27.5619 3.85947 28.3463 4.23518C29.938 4.9978 32.4644 4.66845 33.4351 2.35021C33.4956 2.20632 33.5462 2.05764 33.6132 1.88177C33.6917 2.52448 33.2145 3.60206 32.569 4.27835C33.2455 4.18082 34.365 3.38463 34.798 2.68596C35.3258 1.837 35.3945 0.940086 35.0742 0.00319764L35.0709 0Z" fill="var(--fill-0, #9D833E)"/>
<path id="Vector_8" d="M9.04351 25.7324C8.73138 27.2001 8.90297 28.5383 9.51415 29.8125C10.1302 31.0996 11.0421 32.0924 12.4769 32.5321C10.4276 32.0892 9.20692 30.7318 8.31957 28.8964C8.30323 29.2562 8.26401 29.5631 8.28199 29.8653C8.3016 30.1915 8.36043 30.5176 8.43069 30.8374C8.4977 31.1443 8.60228 31.4433 8.70197 31.7822C7.55478 30.5592 7.71493 27.6142 9.04351 25.7324Z" fill="var(--fill-0, #9D833E)"/>
<path id="Vector_9" d="M30.0998 32.5177C32.5265 31.9117 33.8388 28.9428 33.6721 26.7557C33.6508 26.4711 33.6132 26.1881 33.5822 25.9019C34.5006 27.0355 35.2262 30.0987 33.9254 31.7439C34.0349 31.261 34.177 30.815 34.2277 30.3577C34.2784 29.8909 34.2391 29.416 34.2391 28.8581C33.4564 30.9749 31.3532 32.5209 30.0998 32.5177Z" fill="var(--fill-0, #9D833E)"/>
<path id="Vector_10" d="M11.5078 22.1975C10.8885 20.1303 10.9522 18.0807 11.7677 16.0614V16.6162C11.9621 16.5011 12.1125 16.4115 12.369 16.2596C12.3511 16.4531 12.3772 16.5922 12.3233 16.6865C11.8183 17.5547 11.4784 18.4836 11.4212 19.4764C11.3738 20.2758 11.4457 21.0832 11.4686 21.8858C11.4719 21.9897 11.4948 22.0936 11.5095 22.1959L11.5078 22.1975Z" fill="var(--fill-0, #9D833E)"/>
<path id="Vector_11" d="M31.0999 22.0792C31.1293 21.7003 31.1571 21.3198 31.1865 20.9409C31.3025 19.446 31.0492 18.0295 30.2714 16.7185C30.2093 16.613 30.2142 16.4691 30.1897 16.3444C30.2191 16.3332 30.2485 16.322 30.2779 16.3108C30.4429 16.4147 30.608 16.5202 30.8057 16.6449V16.0406C31.5346 16.8992 31.729 20.5124 31.1015 22.0792H31.0999Z" fill="var(--fill-0, #9D833E)"/>
<path id="Vector_12" d="M18.7521 32.7703C19.6967 33.1972 20.115 33.8623 20.1461 34.7672C20.1738 35.549 19.999 36.2924 19.6591 37.0071C19.8862 35.5154 19.6623 34.1181 18.7521 32.7703Z" fill="var(--fill-0, #9D833E)"/>
<path id="Vector_13" d="M22.9372 37.0998C22.5303 36.1102 22.2884 35.1061 22.581 34.0413C22.7509 33.4194 23.1611 33.0277 23.8229 32.7655C22.9274 34.1357 22.6496 35.5634 22.9372 37.0998Z" fill="var(--fill-0, #9D833E)"/>
<path id="Vector_14" d="M20.2735 16.7824H22.1071C21.9453 17.0063 21.7802 17.1853 21.6756 17.3964C21.589 17.569 21.6037 17.7881 21.5204 17.9624C21.4697 18.0695 21.3243 18.1974 21.2181 18.2006C21.1135 18.2038 20.9092 18.0583 20.9108 17.9831C20.9305 17.4843 20.633 17.1566 20.2719 16.7824H20.2735Z" fill="var(--fill-0, #9D833E)"/>
<path id="Vector_15" d="M23.5958 3.37184C22.8048 4.00975 22.1544 4.66206 21.9747 5.71246C21.7099 4.23838 22.3277 3.33826 23.5958 3.37184Z" fill="var(--fill-0, #9D833E)"/>
<path id="Vector_16" d="M19.2031 3.36704C20.2801 3.31908 20.821 4.09609 20.6723 5.56057C20.4958 5.19605 20.3405 4.75479 20.0872 4.37747C19.8307 3.99536 19.4777 3.67401 19.2031 3.36704Z" fill="var(--fill-0, #9D833E)"/>
<path id="Vector_17" d="M17.2421 11.014C16.7535 11.3562 16.3924 11.2203 16.126 10.6223C16.5166 10.7598 16.845 10.8749 17.2421 11.014Z" fill="var(--fill-0, #9D833E)"/>
<path id="Vector_18" d="M26.3543 10.6431C26.1647 11.2187 25.8281 11.3402 25.3705 11.0252C25.73 10.8861 26.0421 10.7646 26.3543 10.6431Z" fill="var(--fill-0, #9D833E)"/>
</g>
</svg>
